<svg xmlns="http://www.w3.org/2000/svg" xmlns:xlink="http://www.w3.org/1999/xlink" width="160" height="160" viewBox="-8 -8 16 16" >
  <defs>
    <pattern id="grid" x="0" y="0" width="1" height="1" patternContentUnits="userSpaceOnUse" patternUnits="userSpaceOnUse">
      <line x1="0.5" y1="0" x2="0.5" y2="1" stroke="gray" stroke-width="0.1" />
      <line x1="0" y1="0.5" x2="1" y2="0.5" stroke="gray" stroke-width="0.1" />
    </pattern>
    <symbol id="dot">
      <circle cx="0.5" cy="0.5" r="0.4" />
    </symbol>
    <linearGradient id="bg">
      <stop offset="0%" stop-color="#285c00"/>
      <stop offset="100%" stop-color="#285c00" stop-opacity="0" />
    </linearGradient>
  </defs>
  <rect x="-8" y="-8" width="16" height="16" fill="gray" />
  <rect x="-8" y="-8" width="1.5" height="16" fill="url(#bg)" />
  <rect x="-8" y="-8" width="3.5" height="16" fill="url(#bg)" transform="rotate(90)" />
  <rect x="-8" y="-8" width="1.5" height="16" fill="url(#bg)" transform="rotate(180)" />
  <rect x="-8" y="-8" width="3.5" height="16" fill="url(#bg)" transform="rotate(270)" />
  <path fill="white" stroke="gray" stroke-width="0.1" d="
    M -5.5 -4
    a 0.5 0.5 0 0 1 1 0
    a 0.5 0.5 0 0 1 1 0
    a 0.5 0.5 0 0 1 1 0
    a 0.5 0.5 0 0 1 1 0
    a 0.5 0.5 0 0 1 1 0
    a 0.5 0.5 0 0 1 1 0
    a 0.5 0.5 0 0 1 1 0
    a 0.5 0.5 0 0 1 1 0
    a 0.5 0.5 0 0 1 1 0
    a 0.5 0.5 0 0 1 1 0
    a 0.5 0.5 0 0 1 1 0
    a 0.5 0.5 0 1 1 0.5 0.5
    a 0.5 0.5 0 0 1 0 1
    a 0.5 0.5 0 0 1 0 1
    a 0.5 0.5 0 0 1 0 1
    a 0.5 0.5 0 0 1 0 1
    a 0.5 0.5 0 0 1 0 1
    a 0.5 0.5 0 0 1 0 1
    a 0.5 0.5 0 0 1 0 1
    a 0.5 0.5 0 1 1 -0.5 0.5
    a 0.5 0.5 0 0 1 -1 0
    a 0.5 0.5 0 0 1 -1 0
    a 0.5 0.5 0 0 1 -1 0
    a 0.5 0.5 0 0 1 -1 0
    a 0.5 0.5 0 0 1 -1 0
    a 0.5 0.5 0 0 1 -1 0
    a 0.5 0.5 0 0 1 -1 0
    a 0.5 0.5 0 0 1 -1 0
    a 0.5 0.5 0 0 1 -1 0
    a 0.5 0.5 0 0 1 -1 0
    a 0.5 0.5 0 0 1 -1 0
    a 0.5 0.5 0 1 1 -0.5 -0.5
    a 0.5 0.5 0 0 1 0 -1
    a 0.5 0.5 0 0 1 0 -1
    a 0.5 0.5 0 0 1 0 -1
    a 0.5 0.5 0 0 1 0 -1
    a 0.5 0.5 0 0 1 0 -1
    a 0.5 0.5 0 0 1 0 -1
    a 0.5 0.5 0 0 1 0 -1
    a 0.5 0.5 0 1 1 0.5 -0.5
    " />
  <rect x="-6" y="-4" width="12" height="8" fill="url(#grid)" />
  <use xlink:href="#dot" x="-6" y="-3" />
  <use xlink:href="#dot" x="-6" y="0" />
  <use xlink:href="#dot" x="-6" y="2" />
  <use xlink:href="#dot" x="-5" y="-3" />
  <use xlink:href="#dot" x="-5" y="-1" />
  <use xlink:href="#dot" x="-5" y="1" />
  <use xlink:href="#dot" x="-5" y="3" />
  <use xlink:href="#dot" x="-4" y="-3" />
  <use xlink:href="#dot" x="-4" y="-1" />
  <use xlink:href="#dot" x="-4" y="2" />
  <use xlink:href="#dot" x="-4" y="3" />
  <use xlink:href="#dot" x="-3" y="-3" />
  <use xlink:href="#dot" x="-3" y="-1" />
  <use xlink:href="#dot" x="-3" y="1" />
  <use xlink:href="#dot" x="-2" y="-3" />
  <use xlink:href="#dot" x="-2" y="0" />
  <use xlink:href="#dot" x="-2" y="3" />
  <use xlink:href="#dot" x="-1" y="-3" />
  <use xlink:href="#dot" x="-1" y="0" />
  <use xlink:href="#dot" x="-1" y="1" />
  <use xlink:href="#dot" x="-1" y="2" />
  <use xlink:href="#dot" x="0" y="-3" />
  <use xlink:href="#dot" x="0" y="2" />
  <use xlink:href="#dot" x="1" y="-3" />
  <use xlink:href="#dot" x="1" y="-1" />
  <use xlink:href="#dot" x="1" y="2" />
  <use xlink:href="#dot" x="2" y="-3" />
  <use xlink:href="#dot" x="2" y="0" />
  <use xlink:href="#dot" x="2" y="1" />
  <use xlink:href="#dot" x="2" y="2" />
  <use xlink:href="#dot" x="2" y="3" />
  <use xlink:href="#dot" x="3" y="-3" />
  <use xlink:href="#dot" x="3" y="-1" />
  <use xlink:href="#dot" x="3" y="1" />
  <use xlink:href="#dot" x="3" y="2" />
  <use xlink:href="#dot" x="3" y="3" />
  <use xlink:href="#dot" x="4" y="-3" />
  <use xlink:href="#dot" x="4" y="0" />
  <use xlink:href="#dot" x="4" y="1" />
  <use xlink:href="#dot" x="4" y="2" />
  <use xlink:href="#dot" x="5" y="-3" />
  <use xlink:href="#dot" x="5" y="1" />
  <use xlink:href="#dot" x="5" y="3" />
</svg>
